<svg xmlns="http://www.w3.org/2000/svg" 
     viewBox="0 0 3000 1000"
     aria-hidden="true"
     focusable="false">
  <g fill="#FFF">
    <path d="M684.511,301.29c-53.077-53.077-123.647-82.308-198.71-82.308s-145.632,29.231-198.709,82.308c-53.077,53.078-82.308,123.647-82.308,198.71s29.231,145.632,82.308,198.709c53.077,53.078,123.647,82.309,198.709,82.309s145.632-29.231,198.71-82.309,82.308-123.647,82.308-198.709-29.231-145.633-82.308-198.71ZM540.993,675.703c-78.988,0-147.091-59.142-169.371-130.9l286.888-63.91c-3.695-38.873-20.834-75.74-48.26-103.811-27.81-28.464-64.948-46.485-104.575-50.745-94.274-10.136-179.229,58.327-189.362,152.609-1.478,13.747-1.305,27.418.427,40.791,4.638,52.521,27.313,101.288,65.043,139.018,42.248,42.248,98.33,65.628,158.03,65.932-17.486,4.169-35.582,6.329-54.012,6.329-61.707,0-119.721-24.03-163.354-67.664-43.633-43.634-67.664-101.647-67.664-163.354s24.03-119.721,67.664-163.354,101.647-67.664,163.354-67.664,119.721,24.03,163.354,67.664,67.664,101.647,67.664,163.354c0,102.186-85.634,175.703-175.826,175.703ZM365.355,494.637c.081-3.438.3-6.889.672-10.347,3.481-32.393,19.369-61.491,44.736-81.935s57.175-29.787,89.569-26.303c42.37,4.554,78.312,30.887,96.404,67.44l-231.381,51.145ZM594.702,555.206l44.005,23.74c-14.663,27.178-36.211,49.707-62.607,65.627-25.911,7.338-54.085,6.006-80.188-4.883-13.727-5.726-26.04-13.717-36.588-23.63,4.886,1.141,9.873,1.989,14.941,2.534,49.515,5.317,96.792-19.559,120.438-63.389Z"/>
    <polygon points="1024.707 572.553 1024.707 608.849 849.886 608.849 849.886 375.754 1020.046 375.754 1020.046 412.05 893.174 412.05 893.174 472.654 1005.727 472.654 1005.727 508.285 893.174 508.285 893.174 572.553 1024.707 572.553"/>
    <path  d="M1244.153,506.953v101.896h-41.624v-96.567c0-31.635-15.65-46.952-42.29-46.952-29.636,0-49.615,17.981-49.615,53.611v89.908h-41.624v-177.818h39.626v22.977c13.652-16.316,35.297-24.975,61.271-24.975,42.623,0,74.257,24.309,74.257,77.921Z"/>
    <path  d="M1276.792,591.2l15.983-31.635c15.65,10.323,39.626,17.648,61.937,17.648,26.307,0,37.295-7.325,37.295-19.646,0-33.965-109.888-1.998-109.888-72.925,0-33.633,30.303-55.61,78.254-55.61,23.643,0,50.614,5.661,66.599,15.318l-15.984,31.634c-16.982-9.989-33.965-13.319-50.947-13.319-25.308,0-37.295,8.324-37.295,19.979,0,35.963,109.887,3.996,109.887,73.591,0,33.3-30.635,54.944-80.584,54.944-29.636,0-59.272-8.658-75.256-19.979Z"/>
    <path  d="M1635.761,520.938c0-55.609-37.961-91.906-89.908-91.906-52.945,0-91.906,37.962-91.906,90.907s38.628,91.24,98.233,91.24c30.635,0,55.609-9.99,71.593-28.971l-22.311-25.641c-12.653,12.987-28.304,19.314-48.283,19.314-30.969,0-52.613-16.65-57.608-42.623h139.524c.333-3.996.666-8.991.666-12.321ZM1495.237,505.621c3.996-25.974,23.643-43.289,50.615-43.289,27.306,0,46.952,17.648,50.282,43.289h-100.897Z"/>
    <path d="M1973.085,506.953v101.896h-41.624v-96.567c0-31.635-14.652-46.952-39.959-46.952-27.306,0-46.286,17.981-46.286,53.278v90.241h-41.624v-96.567c0-31.635-14.652-46.952-39.959-46.952-27.639,0-46.286,17.981-46.286,53.278v90.241h-41.624v-177.818h39.626v22.644c13.319-15.983,33.965-24.642,58.273-24.642,25.974,0,47.618,9.657,59.938,29.637,14.319-18.314,38.295-29.637,66.599-29.637,42.956,0,72.926,24.309,72.926,77.921Z"/>
    <path d="M2124.936,429.032c-22.644,0-42.623,7.659-56.941,23.643v-90.906h-41.624v247.08h39.626v-22.977c13.985,16.982,34.631,25.308,58.939,25.308,51.947,0,90.241-35.963,90.241-91.24s-38.294-90.907-90.241-90.907ZM2120.273,575.55c-29.969,0-52.945-21.645-52.945-55.61s22.977-55.609,52.945-55.609,52.613,21.645,52.613,55.609-22.644,55.61-52.613,55.61Z"/>
    <rect x="2254.805" y="361.769" width="41.624" height="247.08"/>
    <g>
      <path d="M2345.376,376.753c0-13.985,11.321-24.975,26.64-24.975s26.639,10.323,26.639,23.976c0,14.651-10.988,25.974-26.639,25.974-15.318,0-26.64-10.989-26.64-24.975Z"/>
      <rect x="2351.037" y="431.03" width="41.624" height="177.818"/>
    </g>
    <polygon points="2586.127 575.55 2586.127 608.849 2432.617 608.849 2432.617 582.542 2530.185 464.33 2434.615 464.33 2434.615 431.03 2583.463 431.03 2583.463 457.337 2485.563 575.55 2586.127 575.55"/>
    <path d="M2788.924,520.938c0-55.609-37.961-91.906-89.908-91.906-52.945,0-91.906,37.962-91.906,90.907s38.628,91.24,98.233,91.24c30.635,0,55.609-9.99,71.593-28.971l-22.311-25.641c-12.653,12.987-28.304,19.314-48.283,19.314-30.969,0-52.613-16.65-57.608-42.623h139.524c.333-3.996.666-8.991.666-12.321ZM2648.4,505.621c3.996-25.974,23.643-43.289,50.615-43.289,27.306,0,46.952,17.648,50.282,43.289h-100.897Z"/>
  </g>
</svg>