<svg xmlns="http://www.w3.org/2000/svg" version="1.1" xmlns:xlink="http://www.w3.org/1999/xlink" width="1000" height="1000"><style>
    #light-icon {
      display: inline;
    }
    #dark-icon {
      display: none;
    }

    @media (prefers-color-scheme: dark) {
      #light-icon {
        display: none;
      }
      #dark-icon {
        display: inline;
      }
    }
  </style><g id="light-icon"><svg xmlns="http://www.w3.org/2000/svg" version="1.1" xmlns:xlink="http://www.w3.org/1999/xlink" width="1000" height="1000"><g clip-path="url(#SvgjsClipPath1197)"><rect width="1000" height="1000" fill="#01323d"></rect><g transform="matrix(1.4209591474245116,0,0,1.4209591474245116,100,100)"><svg xmlns="http://www.w3.org/2000/svg" version="1.1" xmlns:xlink="http://www.w3.org/1999/xlink" width="563" height="563"><svg xmlns="http://www.w3.org/2000/svg" viewBox="218 218 563 563" aria-hidden="true" focusable="false">
  <path fill="#FFF" d="M698.71,301.29c-53.077-53.077-123.647-82.308-198.71-82.308s-145.632,29.231-198.709,82.308c-53.077,53.078-82.308,123.647-82.308,198.71s29.231,145.632,82.308,198.709c53.077,53.078,123.647,82.309,198.709,82.309s145.632-29.231,198.71-82.309,82.308-123.647,82.308-198.709-29.231-145.633-82.308-198.71ZM555.192,675.703c-78.988,0-147.091-59.142-169.371-130.9l286.888-63.91c-3.695-38.873-20.834-75.74-48.26-103.811-27.81-28.464-64.948-46.485-104.575-50.745-94.274-10.136-179.229,58.327-189.362,152.609-1.478,13.747-1.305,27.418.427,40.791,4.638,52.521,27.313,101.288,65.043,139.018,42.248,42.248,98.33,65.628,158.03,65.932-17.486,4.169-35.582,6.329-54.012,6.329-61.707,0-119.721-24.03-163.354-67.664-43.633-43.634-67.664-101.647-67.664-163.354s24.03-119.721,67.664-163.354,101.647-67.664,163.354-67.664,119.721,24.03,163.354,67.664,67.664,101.647,67.664,163.354c0,102.186-85.634,175.703-175.826,175.703ZM379.554,494.637c.081-3.438.3-6.889.672-10.347,3.481-32.393,19.369-61.491,44.736-81.935s57.175-29.787,89.569-26.303c42.37,4.554,78.312,30.887,96.404,67.44l-231.381,51.145ZM608.901,555.206l44.005,23.74c-14.663,27.178-36.211,49.707-62.607,65.627-25.911,7.338-54.085,6.006-80.188-4.883-13.727-5.726-26.04-13.717-36.588-23.63,4.886,1.141,9.873,1.989,14.941,2.534,49.515,5.317,96.792-19.559,120.438-63.389Z"></path>
</svg></svg></g></g><defs><clipPath id="SvgjsClipPath1197"><rect width="1000" height="1000" x="0" y="0" rx="500" ry="500"></rect></clipPath></defs></svg></g><g id="dark-icon"><svg xmlns="http://www.w3.org/2000/svg" version="1.1" xmlns:xlink="http://www.w3.org/1999/xlink" width="1000" height="1000"><g clip-path="url(#SvgjsClipPath1198)"><rect width="1000" height="1000" fill="#ffffff"></rect><g transform="matrix(1.4209591474245116,0,0,1.4209591474245116,100,100)"><svg xmlns="http://www.w3.org/2000/svg" version="1.1" xmlns:xlink="http://www.w3.org/1999/xlink" width="563" height="563"><svg xmlns="http://www.w3.org/2000/svg" viewBox="218 218 563 563" aria-hidden="true" focusable="false">
  <path fill="#01323d" d="M698.71,301.29c-53.077-53.077-123.647-82.308-198.71-82.308s-145.632,29.231-198.709,82.308c-53.077,53.078-82.308,123.647-82.308,198.71s29.231,145.632,82.308,198.709c53.077,53.078,123.647,82.309,198.709,82.309s145.632-29.231,198.71-82.309,82.308-123.647,82.308-198.709-29.231-145.633-82.308-198.71ZM555.192,675.703c-78.988,0-147.091-59.142-169.371-130.9l286.888-63.91c-3.695-38.873-20.834-75.74-48.26-103.811-27.81-28.464-64.948-46.485-104.575-50.745-94.274-10.136-179.229,58.327-189.362,152.609-1.478,13.747-1.305,27.418.427,40.791,4.638,52.521,27.313,101.288,65.043,139.018,42.248,42.248,98.33,65.628,158.03,65.932-17.486,4.169-35.582,6.329-54.012,6.329-61.707,0-119.721-24.03-163.354-67.664-43.633-43.634-67.664-101.647-67.664-163.354s24.03-119.721,67.664-163.354,101.647-67.664,163.354-67.664,119.721,24.03,163.354,67.664,67.664,101.647,67.664,163.354c0,102.186-85.634,175.703-175.826,175.703ZM379.554,494.637c.081-3.438.3-6.889.672-10.347,3.481-32.393,19.369-61.491,44.736-81.935s57.175-29.787,89.569-26.303c42.37,4.554,78.312,30.887,96.404,67.44l-231.381,51.145ZM608.901,555.206l44.005,23.74c-14.663,27.178-36.211,49.707-62.607,65.627-25.911,7.338-54.085,6.006-80.188-4.883-13.727-5.726-26.04-13.717-36.588-23.63,4.886,1.141,9.873,1.989,14.941,2.534,49.515,5.317,96.792-19.559,120.438-63.389Z"></path>
</svg></svg></g></g><defs><clipPath id="SvgjsClipPath1198"><rect width="1000" height="1000" x="0" y="0" rx="500" ry="500"></rect></clipPath></defs></svg></g></svg>